<svg width="80" height="65" viewBox="0 0 80 65" fill="none" xmlns="http://www.w3.org/2000/svg">
<path d="M5.28671 29.0675H3.72836V16.529H0V15.082H8.89118V16.529H5.28671V29.0675Z" fill="#252944"/>
<path d="M20.7784 20.7575V15.082H22.3368V29.0675H20.7784V22.2053H12.4833V29.0675H10.9258V15.082H12.4833V20.7575H20.7784Z" fill="#252944"/>
<path d="M25.0254 15.082H32.5616V16.529H26.5838V20.6835H32.3949V22.1289H26.5838V27.6198H32.5616V29.0667H25.0254V15.082Z" fill="#252944"/>
<path d="M57.9456 22.0927C57.9456 26.1187 54.6442 29.3086 50.6564 29.3086C46.6686 29.3086 43.3672 26.1187 43.3672 22.0927C43.3672 18.0877 46.6686 14.8408 50.6564 14.8408C54.6442 14.8408 57.9456 18.0877 57.9456 22.0927ZM44.9232 22.0747C44.9232 25.2281 47.4828 27.8624 50.6556 27.8624C53.8261 27.8624 56.3864 25.2281 56.3864 22.0747C56.3864 18.9019 53.8634 16.2878 50.6556 16.2878C47.4469 16.2878 44.9232 18.9012 44.9232 22.0747Z" fill="#252944"/>
<path d="M61.6974 27.6205H66.4075V29.0675H60.1406V15.082H61.6974V27.6205Z" fill="#252944"/>
<path d="M68.5957 15.082H71.2286C73.3253 15.082 75.0325 15.3594 76.6836 16.7698C78.2786 18.1427 79.0016 20.0174 79.0016 22.0932C79.0016 24.1338 78.2598 25.9337 76.7202 27.305C75.0512 28.7902 73.3815 29.0675 71.1927 29.0675H68.5957V15.082ZM71.2855 27.6205C72.9918 27.6205 74.4201 27.3798 75.6995 26.1752C76.8496 25.0992 77.4433 23.6335 77.4433 22.0752C77.4433 20.4818 76.8316 18.9422 75.6255 17.8832C74.3461 16.7519 72.9365 16.5298 71.2855 16.5298H70.1541V27.6205H71.2855Z" fill="#252944"/>
<path d="M2.48452 50.1281H0.927734V36.1426H2.94812C5.60122 36.1426 8.0681 36.847 8.0681 40.0003C8.0681 42.1525 6.7139 43.6726 4.5626 43.858L9.01401 50.1281H7.10426L2.87411 43.9873H2.48452V50.1281ZM2.48452 42.6145H2.96683C4.73011 42.6145 6.50896 42.281 6.50896 40.1095C6.50896 37.8101 4.82205 37.588 2.94812 37.588H2.48452V42.6145Z" fill="#252944"/>
<path d="M11.0586 36.1426H18.3112V37.588H12.6169V41.7426H18.1452V43.1895H12.6169V48.6788H18.3112V50.1272H11.0586V36.1426Z" fill="#252944"/>
<path d="M32.2789 39.2037C31.1654 38.0528 29.6258 37.3485 28.0122 37.3485C24.8954 37.3485 22.3725 40.0561 22.3725 43.1362C22.3725 46.2132 24.9142 48.924 28.0488 48.924C29.625 48.924 31.1654 48.1813 32.2789 47.0672V48.9972C31.0719 49.8691 29.5884 50.3701 28.1057 50.3701C24.1537 50.3701 20.8164 47.1622 20.8164 43.1916C20.8164 39.1842 24.0984 35.9023 28.1057 35.9023C29.6632 35.9023 31.0362 36.3481 32.2789 37.2752V39.2037Z" fill="#252944"/>
<path d="M39.2704 50.1281H37.7121V37.588H34.3359V36.1426H42.6832V37.588H39.2704V50.1281Z" fill="#252944"/>
<path d="M57.9486 43.1536C57.9486 47.1789 54.6472 50.3689 50.6595 50.3689C46.6716 50.3689 43.3711 47.1789 43.3711 43.1536C43.3711 39.1464 46.6716 35.9004 50.6595 35.9004C54.6472 35.9004 57.9486 39.1464 57.9486 43.1536ZM44.9271 43.135C44.9271 46.2868 47.4867 48.9228 50.6587 48.9228C53.8307 48.9228 56.3903 46.2868 56.3903 43.135C56.3903 39.9621 53.8673 37.3473 50.6587 37.3473C47.4501 37.348 44.9271 39.9621 44.9271 43.135Z" fill="#252944"/>
<path d="M61.701 50.1281H60.1426V36.1426H62.1645C64.8168 36.1426 67.2837 36.847 67.2837 40.0003C67.2837 42.1525 65.9302 43.6726 63.7782 43.858L68.2305 50.1281H66.3191L62.0905 43.9873H61.701V50.1281ZM61.701 42.6145H62.1825C63.9441 42.6145 65.7261 42.281 65.7261 40.1095C65.7261 37.8101 64.0376 37.588 62.1645 37.588H61.701V42.6145Z" fill="#252944"/>
<path d="M68.0801 36.1426H69.8808L73.4408 42.3745L77.0025 36.1426H78.8016L74.2201 44.1167V50.1281H72.6625V44.1167L68.0801 36.1426Z" fill="#252944"/>
<path d="M79.0019 59.4658H0.927734" stroke="#252944" stroke-miterlimit="10"/>
<path d="M79.0019 63.4697H0.927734" stroke="#252944" stroke-miterlimit="10"/>
<path d="M79.0019 1.54004H0.927734" stroke="#252944" stroke-miterlimit="10"/>
<path d="M79.0019 5.53516H0.927734" stroke="#252944" stroke-miterlimit="10"/>
</svg>
