<svg width="64" height="52" viewBox="0 0 64 52" fill="none" xmlns="http://www.w3.org/2000/svg">
<path d="M4.22937 23.2539H2.98269V13.2231H0V12.0655H7.11294V13.2231H4.22937V23.2539Z" fill="#252944"/>
<path d="M16.622 16.6059V12.0655H17.8687V23.2539H16.622V17.7641H9.98592V23.2539H8.73987V12.0655H9.98592V16.6059H16.622Z" fill="#252944"/>
<path d="M20.0204 12.0655H26.0494V13.2231H21.2671V16.5467H25.916V17.703H21.2671V22.0957H26.0494V23.2532H20.0204V12.0655Z" fill="#252944"/>
<path d="M46.3572 17.6744C46.3572 20.8952 43.7161 23.4471 40.5259 23.4471C37.3356 23.4471 34.6945 20.8952 34.6945 17.6744C34.6945 14.4704 37.3356 11.8729 40.5259 11.8729C43.7161 11.8729 46.3572 14.4704 46.3572 17.6744ZM35.9393 17.66C35.9393 20.1827 37.987 22.2902 40.5252 22.2902C43.0616 22.2902 45.1099 20.1827 45.1099 17.66C45.1099 15.1218 43.0915 13.0305 40.5252 13.0305C37.9583 13.0305 35.9393 15.1212 35.9393 17.66Z" fill="#252944"/>
<path d="M49.3586 22.0963H53.1267V23.2539H48.1132V12.0655H49.3586V22.0963Z" fill="#252944"/>
<path d="M54.8764 12.0655H56.9827C58.6601 12.0655 60.0258 12.2874 61.3467 13.4157C62.6227 14.514 63.2011 16.0138 63.2011 17.6744C63.2011 19.3069 62.6077 20.7468 61.376 21.8439C60.0408 23.032 58.705 23.2539 56.954 23.2539H54.8764V12.0655ZM57.0282 22.0963C58.3933 22.0963 59.5359 21.9037 60.5594 20.94C61.4795 20.0792 61.9545 18.9067 61.9545 17.66C61.9545 16.3853 61.4651 15.1536 60.5002 14.3064C59.4767 13.4014 58.349 13.2237 57.0282 13.2237H56.1231V22.0963H57.0282Z" fill="#252944"/>
<path d="M1.98719 40.1028H0.74176V28.9144H2.35807C4.48055 28.9144 6.45405 29.4779 6.45405 32.0006C6.45405 33.7223 5.37069 34.9384 3.64965 35.0867L7.21078 40.1028H5.68298L2.29886 35.1902H1.98719V40.1028ZM1.98719 34.0919H2.37304C3.78366 34.0919 5.20674 33.8251 5.20674 32.0879C5.20674 30.2484 3.85721 30.0707 2.35807 30.0707H1.98719V34.0919Z" fill="#252944"/>
<path d="M8.84705 28.9144H14.6491V30.0707H10.0937V33.3944H14.5163V34.5519H10.0937V38.9434H14.6491V40.1021H8.84705V28.9144Z" fill="#252944"/>
<path d="M25.8231 31.3629C24.9323 30.4422 23.7006 29.8787 22.4097 29.8787C19.9163 29.8787 17.898 32.0448 17.898 34.5089C17.898 36.9705 19.9313 39.1391 22.439 39.1391C23.7 39.1391 24.9323 38.545 25.8231 37.6537V39.1977C24.8575 39.8952 23.6707 40.296 22.4845 40.296C19.3229 40.296 16.6531 37.7297 16.6531 34.5532C16.6531 31.3473 19.2787 28.7218 22.4845 28.7218C23.7305 28.7218 24.8289 29.0784 25.8231 29.8201V31.3629Z" fill="#252944"/>
<path d="M31.4157 40.1028H30.169V30.0707H27.4681V28.9144H34.1459V30.0707H31.4157V40.1028Z" fill="#252944"/>
<path d="M46.3584 34.5232C46.3584 37.7434 43.7173 40.2954 40.5271 40.2954C37.3368 40.2954 34.6964 37.7434 34.6964 34.5232C34.6964 31.3174 37.3368 28.7206 40.5271 28.7206C43.7173 28.7206 46.3584 31.3174 46.3584 34.5232ZM35.9412 34.5083C35.9412 37.0297 37.9889 39.1385 40.5265 39.1385C43.0641 39.1385 45.1118 37.0297 45.1118 34.5083C45.1118 31.97 43.0934 29.8781 40.5265 29.8781C37.9596 29.8787 35.9412 31.97 35.9412 34.5083Z" fill="#252944"/>
<path d="M49.3611 40.1028H48.1144V28.9144H49.7319C51.8538 28.9144 53.8273 29.4779 53.8273 32.0006C53.8273 33.7223 52.7445 34.9384 51.0229 35.0867L54.5847 40.1028H53.0556L49.6727 35.1902H49.3611V40.1028ZM49.3611 34.0919H49.7463C51.1556 34.0919 52.5812 33.8251 52.5812 32.0879C52.5812 30.2484 51.2304 30.0707 49.7319 30.0707H49.3611V34.0919Z" fill="#252944"/>
<path d="M54.4637 28.9144H55.9043L58.7523 33.8999L61.6016 28.9144H63.0409L59.3757 35.2937V40.1028H58.1296V35.2937L54.4637 28.9144Z" fill="#252944"/>
<path d="M63.2011 47.5729H0.74176" stroke="#252944" stroke-width="0.857" stroke-miterlimit="10"/>
<path d="M63.2011 51H0.74176" stroke="#252944" stroke-width="0.857" stroke-miterlimit="10"/>
<path d="M63.2011 1H0.74176" stroke="#252944" stroke-width="0.857" stroke-miterlimit="10"/>
<path d="M63.2011 4.42837H0.74176" stroke="#252944" stroke-width="0.857" stroke-miterlimit="10"/>
</svg>
