<svg xmlns="http://www.w3.org/2000/svg" aria-labelledby="title" viewBox="0 2 368.293 74" style="fill: #000; stroke: #000" xml:space="preserve"><style>.st1{stroke-width:3.1499;stroke-miterlimit:10}</style>
<path d="M39.649 1.774c3.3 0 6.268.537 8.904 1.601 2.646 1.064 4.911 2.519 6.805 4.374a19.129 19.129 0 0 1 4.325 6.434c.996 2.441 1.494 5.067 1.494 7.879 0 4.325-.918 8.074-2.734 11.228-1.816 3.163-4.784 5.565-8.904 7.215v.205c1.992.547 3.632 1.386 4.94 2.519a13.965 13.965 0 0 1 3.193 4.022c.82 1.543 1.425 3.241 1.806 5.096.371 1.855.635 3.7.771 5.555.068 1.172.137 2.548.205 4.12a77.35 77.35 0 0 0 .361 4.843c.166 1.65.439 3.212.82 4.686.381 1.474.947 2.734 1.699 3.759H47.167c-.888-2.333-1.445-5.116-1.65-8.338a120.067 120.067 0 0 0-.928-9.275c-.547-3.847-1.718-6.659-3.495-8.445-1.787-1.787-4.706-2.675-8.758-2.675H16.168V75.31H0V1.774h39.649zm-5.77 33.273c3.71 0 6.493-.83 8.348-2.48 1.855-1.64 2.783-4.325 2.783-8.025 0-3.573-.928-6.161-2.783-7.781-1.855-1.611-4.638-2.421-8.348-2.421H16.168v20.708h17.711zM86.948 56.231c.888 1.657 2.07 3.004 3.554 4.031 1.474 1.027 3.202 1.789 5.194 2.279 1.992.499 4.052.744 6.18.744 1.445 0 2.988-.113 4.638-.348a16.51 16.51 0 0 0 4.638-1.337 10.14 10.14 0 0 0 3.603-2.731c.957-1.158 1.435-2.637 1.435-4.417 0-1.921-.635-3.484-1.904-4.671-1.269-1.196-2.232-1.513-4.292-2.313-2.06-.791-4.393-1.488-7.01-2.081a199.695 199.695 0 0 1-7.928-1.987 72.398 72.398 0 0 1-8.035-2.439c-2.607-.951-4.94-2.194-7-3.72-2.06-1.526-3.72-3.428-4.999-5.716-1.269-2.279-1.904-5.048-1.904-8.287 0-3.645.81-6.809 2.421-9.493s3.73-4.916 6.336-6.705c2.607-1.789 5.565-3.108 8.855-3.974 3.3-.857 6.59-1.29 9.89-1.29 3.847 0 7.528.414 11.072 1.243 3.534.829 6.678 2.166 9.422 4.021a20.702 20.702 0 0 1 6.541 7.101c1.611 2.882 2.421 6.376 2.421 10.482h-15.66c-.137-2.119-.596-3.871-1.386-5.264-.791-1.394-1.836-2.486-3.144-3.277-1.308-.791-2.792-1.356-4.481-1.686-1.679-.33-3.515-.499-5.507-.499a19.7 19.7 0 0 0-3.915.396c-1.308.264-2.49.735-3.554 1.394a8.673 8.673 0 0 0-2.626 2.486c-.683.989-1.025 2.251-1.025 3.767 0 1.394.273 2.524.82 3.381.547.866 1.63 1.657 3.241 2.383 1.621.735 3.847 1.46 6.698 2.185 2.851.735 6.571 1.657 11.179 2.788 1.367.264 3.271.744 5.712 1.441 2.431.687 4.852 1.799 7.264 3.324 2.402 1.526 4.472 3.56 6.229 6.112 1.748 2.552 1.929 5.138 1.929 9.112 0 3.24-.654 6.253-1.962 9.041-1.299 2.778-3.241 5.18-5.819 7.195-2.568 2.025-5.76 3.597-9.578 4.718-3.808 1.13-8.221 1.695-13.229 1.695-4.052 0-7.986-.48-11.794-1.441-3.808-.961-7.176-2.467-10.095-4.52-2.919-2.053-5.233-4.671-6.951-7.845-1.718-3.183-2.538-6.959-2.47-11.329h15.66c-.001 2.378.438 4.403 1.336 6.051zM186.811 1.774l30.696 49.334h.205V1.774h15.143v73.537h-16.178l-30.579-49.227h-.215v49.227H170.75V1.774h16.061zM332.943 61.963c1.709 1.755 3.837 2.627 6.385 2.627 2.675 0 4.872-.758 6.59-2.273 1.709-1.525 3.085-3.375 4.12-5.571a28.202 28.202 0 0 0 2.216-7.029c.439-2.493.732-4.718.869-6.674l-.205-.201c-1.992 2.829-4.325 4.852-7 6.07s-5.77 1.822-9.275 1.822c-3.085 0-6.112-.662-9.06-1.975s-5.458-3.088-7.518-5.312a20.277 20.277 0 0 1-4.218-7.383 26.985 26.985 0 0 1-1.338-8.39c0-3.644.596-7.029 1.796-10.164 1.201-3.136 2.919-5.868 5.155-8.199 2.226-2.321 4.891-4.162 7.977-5.514 3.085-1.342 6.522-2.023 10.3-2.023 5.487 0 10.007 1.064 13.542 3.193 3.534 2.119 6.366 4.919 8.494 8.39 2.128 3.471 3.603 7.403 4.433 11.785a71.923 71.923 0 0 1 1.23 13.252c0 4.382-.508 8.764-1.543 13.146-1.025 4.382-2.675 8.342-4.94 11.89a27.026 27.026 0 0 1-8.758 8.592c-3.564 2.196-7.928 3.289-13.073 3.289-3.095 0-5.975-.422-8.65-1.266-2.685-.844-5.048-2.1-7.108-3.788s-3.749-3.749-5.048-6.175c-1.308-2.426-2.167-5.188-2.578-8.294h13.903c.481 2.368 1.584 4.42 3.302 6.175zm12.361-23.119a10.402 10.402 0 0 0 3.603-2.877c.957-1.218 1.679-2.618 2.158-4.2.478-1.582.722-3.251.722-5.005 0-1.621-.254-3.222-.771-4.804s-1.269-3.001-2.265-4.248a11.085 11.085 0 0 0-3.661-2.982c-1.435-.748-3.085-1.112-4.94-1.112-1.718 0-3.261.364-4.638 1.112a11.114 11.114 0 0 0-3.495 2.934c-.967 1.208-1.689 2.589-2.167 4.142s-.722 3.136-.722 4.756c0 1.688.225 3.318.674 4.9.449 1.592 1.113 3.001 2.011 4.248.888 1.256 2.041 2.263 3.446 3.04 1.406.777 3.036 1.16 4.891 1.16 1.99.001 3.709-.354 5.154-1.064z" class="st0"></path><path d="m239.29 61.085 44.553.202M242.12 23.39c.035-7.691 2.198-13.378 6.491-17.061 3.586-3.06 7.946-4.579 13.083-4.555 5.71.026 10.368 1.918 13.975 5.675 3.607 3.758 5.396 8.935 5.366 15.531-.024 5.345-.845 9.545-2.462 12.601-1.617 3.056-3.962 5.425-7.032 7.105-3.072 1.681-6.419 2.513-10.042 2.497-5.814-.026-10.505-1.911-14.073-5.656-3.57-3.745-5.338-9.123-5.306-16.137zm7.235.033c-.024 5.319 1.118 9.307 3.426 11.963 2.308 2.657 5.222 3.993 8.742 4.009 3.493.016 6.406-1.301 8.739-3.949 2.332-2.649 3.511-6.697 3.536-12.147.023-5.136-1.126-9.032-3.447-11.689-2.322-2.656-5.216-3.993-8.683-4.009-3.52-.016-6.446 1.288-8.778 3.91-2.334 2.623-3.511 6.593-3.535 11.912z" class="st1"></path></svg>
