<svg xmlns="http://www.w3.org/2000/svg" width="150" height="34" class="footer__logo"><g fill="currentColor" fill-rule="evenodd"><path d="m97.802 9.648 1.55 4.8h5.052l-4.052 2.988 1.548 4.755-4.098-2.943-4.098 2.943 1.594-4.755-4.143-2.988h5.054l1.593-4.8"/><path d="M97.802 27.625c-6.147 0-11.019-4.8-11.019-10.957 0-6.205 4.872-11.005 11.02-11.005 6.146 0 11.064 4.8 11.064 11.005 0 6.157-4.918 10.957-11.065 10.957Zm0-27.034c-8.924 0-16.346 7.065-16.346 16.077 0 9.054 7.422 16.074 16.346 16.028 8.925 0 16.255-7.063 16.255-16.028 0-9.012-7.33-16.077-16.255-16.077ZM129.583 12.59v19.609h-5.327V.093l20.172 20.422V1.09h5.327v32.014L129.583 12.59M66.249 5.934V32.2H60.92V5.934h-9.925V1.09H76.13v4.845h-9.881M30.506 32.199V1.089h5.327v26.263h13.751V32.2H30.506M0 32.199V1.089h19.078v4.845H5.328v8.152h12.43v4.665H5.327v8.601h13.75V32.2H0"/></g></svg>