<svg enable-background="new 0 0 236.3 62" viewBox="0 0 236.3 62" xmlns="http://www.w3.org/2000/svg"><path d="m4.5 10.4 26.9-4.2 37.8-3.4 4.8 19.5-2 17.8-28.3 10.9-40.9 2.9-2.8-15.4z"/><g fill="#fff"><path d="m43.7 10.2 8 13.3-7.9 15 6-.2 5.5-10 5.4 9.9 6.7.1-8.9-14.9 7.2-13.3-5.8-.1-4.9 8.9-5-9z"/><path d="m31.5 20.9s-.7-2.4 1.3-2.8c2.7-.6 2.8 2.1 2.8 2.1l1 5.8-4.1.6zm10.4 12.9-3.4.6c1.1 4.7-1.5 5.3-3 5s-2.3-1.3-2.9-9.5l8.5-1.1-1.5-9.4s-1.3-6.1-6.8-5.3c-5.6.9-5.2 6.9-5.2 6.9l2.3 16.7c.5 2.7 1.8 4.5 5.1 5.1 3.3.7 8.8-1.4 6.9-9"/><path d="m11.9 33.2c4.7 9.6-3.5 11.2-8.3 7.9-1.4 2.8-.5 8.4-.5 8.4 6.2 1.4 18.3.4 18.2-12.1-.3-5-1.6-6.8-3.6-9.6-5.6-8-.4-12.1 6.2-7.9l1.3-6.6c-9.5-4.8-22.4.6-16.2 14.5z"/></g><path d="m97.8 0-4.2 15.1-2.4 18.4-1.9 22.4 12.2 2 72.1 4.1 37.2-5.2 23.2-8.5 2.3-37.9-49.9-6.4-63.6-.2z"/><g fill="#fff" transform="translate(31.3331 -149.2)"><path d="m124.4 161.4 17.9-1.9-.9 6.6-4.9.7-4.9 29.7-7.5.9 4.2-29.6-4.9.3z"/><path d="m180.5 164.3-4.6 24 6.6-.2-1.2 5.3-12.7.8 5.8-29.8z"/><path d="m77.7 174.5-3.6-.2 1.1-9.1 3.3.2c1.8.5 1.6 2.3 1.6 2.3l-.6 5.1c0 .1-.2 2-1.8 1.7zm10.6 5 2-16.7s-.1-5.9-6.6-6.7l-16.5-1.4-4.8 48.1 9.2.3 1.8-18.9 9.3.5c4.7-.1 5.6-5.2 5.6-5.2"/><path d="m152.4 197.3c-1.8-.5-3-2.2-2.5-3.8l3.8-23.3c.4-1.6 2.2-2.6 4.1-2.1 1.8.5 3 2.2 2.5 3.8l-3.8 23.3c-.5 1.6-2.3 2.5-4.1 2.1zm13.2-.1c0-.1 4.3-25.9 4.3-25.9.8-6.3-4.2-12-11.3-12.9-7-.9-13.3 3.5-14.1 9.7l-4.3 25.9c-.8 6.3 4.2 12 11.3 12.9 7 1 13.3-3.4 14.1-9.7"/><path d="m112.2 170.2 5.1-.1c.3-2.8-1.2-5.6-3.9-6.7-3.3-1.4-6.9-.4-8.6 3.5-.8 1.8-1 4.6 1.1 8 0 0 2.6 3.5 4.3 5.1 0 0 1.3 1.3 1.2 2.8-.1 1.3-.5 2.2-1 2.1-.4 0-1.1-1.2-.7-3.1-3.6-1-6-.2-6-.2-.5 3.1 1.1 5.9 3.9 7.1 3.4 1.5 7.3.1 8.9-3.6.8-1.8.8-3.7.2-5.4 0 0-1.3-2.8-4.1-6.1-1.6-1.8-2.2-3-2.3-5 0-1 .3-1.8.9-1.8.9.2 1 3.4 1 3.4"/><path d="m194.8 179.2c-3.6-4.4-3.9-7.1-3.4-8.3s1.8-1.8 2.8-1.4 1.5 1.6 1 2.8l2.9 1c.8-2.2 1.7-5.4-2.5-7.1-4-1.7-7.3.3-8.2 3.6-1 3.9-.1 6.1 2.4 9.6 1.4 1.9 4.1 5.6 3.9 8-.3 2.4-1.9 3.4-3.3 2.8s-1.8-2.3-1.2-3.8l-3.9-.8c-1 4.4.7 7.5 3.8 8.3 3.3.9 6 .2 7.2-2.6.3-1.4 1.4-5.3.6-8.3-.2-1.2-1.3-2.9-2.1-3.8"/></g><path d="m126.9 19.5 5.9.8-3.3 23.2-5.9-.8z" fill="#fff"/><circle cx="130.4" cy="15.9" fill="#fff" r="3"/></svg>