<svg height="76" width="67" xmlns="http://www.w3.org/2000/svg" class="w-full h-full"><g fill="none" fill-rule="evenodd"><path d="m-43-41h1366v328h-1366z"></path><path d="m8.412 19.483c2.725-2.59 3.627-4.404 5.426-7.963 1.914-3.773 4.577-7.39 7.916-9.326 2.648-1.535 4.606-2.368 7.484-2.152 3.642.287 5.066 2.752 5.757 5.882 3.167-2.87 3.714-3.515 6.448-4.806 3.08-1.45 8.32-1.865 10.68 1.076 1.583 1.966 3.05 7.447 5.325 12.124 2.447 5.022 4.692 5.926 8.492 8.537 1.87 1.292.777 2.095 0 2.87-2.59 2.583-6.4 6.751-9.5 11.766-3.043 4.924-3.756 8.279-6.188 13.487-3.023 6.457-5.758 10.431-11.658 12.727-1.483.574-2.188 1.377-3.167 2.625-2.735 3.444-4.606 6.013-8.78 7.892-6.045 2.726-13.774 2.253-19.027-1.836-2.936-2.282-5.872-5.481-6.88-10.503-1.18-5.926-.92-8.81.576-14.062 1.267-4.419 3.526-7.748 5.973-12.052-.72-2.87-1.151-6.026-5.037-8.896-1.699-1.248-1.512-2.726.503-3.444 1.886-.66 3.708-2.093 5.657-3.946" fill="#db000c"></path><path d="m51.389 23.515s-2.735 1.306-4.592.632c-.49-.172-.964-.66-1.338-1.134 0 0-3.411 2.569-6.29 3.43-2.879.86-6.908-1.005-9.787 1.434-2.878 2.44-6.405 7.677-8.06 10.187-3.31 5.022-5.757 14.636-5.757 14.636s-.36-4.161 1.44-9.327c1.367-3.945 4.893-10.474 7.052-13.2s4.03-4.448 4.03-4.448-3.023.43-4.75-.717c-.907-.603-1.727-2.009-1.727-2.009s-4.606 2.583-5.901 3.587c-1.296 1.004-5.613 4.161-5.613 4.161s-1.008-1.865-1.727-3.013c-.72-1.148-2.015-2.87-2.015-2.87s2.95-2.798 6.332-5.596c3.987-3.285 4.664-3.63 7.197-4.806 1.223-.574 4.246-1.076 7.916 1.22 1.914 1.19 4.534 1.65 7.7.501 3.166-1.147 6.088-3.013 10.435-.645 2.23 1.22 4.059 4.19 5.181 6.17.864 1.506 3.023 1.865 3.742 2.152.72.287 5.326 1.004 5.326 1.004s-4.85 4.333-7.125 6.96c-3.67 4.232-7.34 10.473-8.42 13.271-1.727 4.506-3.814 12.196-4.461 14.564-.403 1.477-.909 2.968-1.719 4.352-.356.608-1.504 1.384-1.504 1.384s-1.328 1.656-3.703 4.383c-.979 1.118-3.408 3.363-5.092 4.382-2.346 1.406-6.943 1.73-6.943 1.73 3.877-1.21 6.48-2.249 10.704-7.208 4.03-4.732 5.162-7.804 7.105-13.686 2.562-7.763 4.03-12.627 7.485-17.505 1.957-2.784 6.476-7.605 7.915-9.04 1.44-1.435 3.023-2.87 3.023-2.87s-4.318-.946-6.06-2.066" fill="#231f20"></path><path d="m25.64 2.41c1.871-.933 3.325-1.048 4.822-.144 1.655 1.004 2.403 2.252 1.87 3.874-.431 1.291-2.23 2.339-3.67 1.506-.863-.502-.575-1.148-2.59-1.22-1.008-.028-2.735 1.22-3.167.79-.676-.675-.547-1.277-.144-2.152.432-.933 1.526-1.98 2.879-2.655m17.415.574c1.871-.933 4.16-1.19 5.686-.359 1.295.718 2.187 1.909 1.655 3.516-.36 1.076-1.152 1.793-2.591 1.722-.792-.03-1.123-.646-1.871-1.22-.648-.502-1.454-.344-2.159-.144-.749.216-1.295.503-2.087.287-.892-.23-1.338-1.133-.935-2.008.431-.933.95-1.12 2.302-1.794m-27.058 30.777c-3.194 2.904-4.781 4.924-6.765 8.753-2.095 4.043-3.31 8.609-3.31 11.191 0 1.865.56 4.137 2.447 4.161 1.901.025 2.144-2.267 2.518-4.16.648-3.23 1.005-5.917 2.375-9.47 1.284-3.33 2.133-5.23 4.246-8.108 1.502-2.045 3.152-3.213 4.39-4.806 1.007-1.291-.288-1.722-1.584-.86-1.064.702-2.75 1.874-4.317 3.3m22.165 1.147c-2.965 4.046-3.024 5.362-4.75 8.896-2.378 4.868-2.735 7.748-5.47 12.77-1.122 2.08-3.31 4.878-2.302 7.317.604 1.464 2.778 1.808 4.03.861 2.447-1.865 2.677-3.486 3.598-6.026 1.727-4.735 1.736-8.196 3.742-13.129 1.66-4.081 2.43-6.597 5.182-10.043 1.125-1.41 2.446-1.937 3.166-3.372.921-1.837-.432-2.44-2.59-1.292-1.613.847-3.023 1.866-4.606 4.018m-22.453-17.075s3.598-3.156 7.196-3.013c3.599.144 4.318 1.722 6.045 2.296s3.886 1.004 7.053-.43c3.166-1.435 7.196-2.784 10.507 0 3.742 3.156 4.864 6.83 4.864 6.83s-2.993 1.348-4.577.63c-1.583-.717-2.59-3.3-2.59-3.3s-1.886 3.186-5.901 3.588c-4.174.43-5.614-3.3-5.614-3.3-.326.325-1.402 2.582-5.757 2.582-5.037 0-5.037-4.304-5.037-4.304s-2.16 1.722-4.174 1.004c-2.015-.717-2.015-2.583-2.015-2.583" fill="#fefefe"></path></g></svg>