<svg xmlns="http://www.w3.org/2000/svg" id="Layer_2" x="0" y="0" style="enable-background:new 0 0 256.62 95.27" version="1.1" viewBox="0 0 256.62 95.27" class="w-full h-full" xmlns:xlink="http://www.w3.org/1999/xlink" xml:space="preserve"><style>.st4{fill:#ec1c24}.st5{fill:#253376}.st7{fill:#faec00}.st8{fill:#bbbdbf}</style>
<g class="logo-flag"><path d="M183.18 71.82a2.96 2.96 0 0 1-2.96-2.96V32a2.96 2.96 0 0 1 2.96-2.96h69.84a2.96 2.96 0 0 1 2.96 2.96v36.85a2.96 2.96 0 0 1-2.96 2.96h-69.84z" style="fill:#fff;stroke:#bbbdbf;stroke-width:.5;stroke-miterlimit:10"></path><defs><path id="SVGID_1_" d="M185.56 68.84h65.08c1.33 0 2.41-1.08 2.41-2.41v-32c0-1.33-1.08-2.41-2.41-2.41h-65.08c-1.33 0-2.41 1.08-2.41 2.41v32c0 1.33 1.08 2.41 2.41 2.41z"></path></defs><clipPath id="SVGID_00000055706434388857134880000010854296857838683526_"><use xlink:href="#SVGID_1_" style="overflow:visible"></use></clipPath><g style="clip-path:url(#SVGID_00000055706434388857134880000010854296857838683526_)"><defs><path id="SVGID_00000028301537340514939190000013317804000615971263_" d="M180.97 30.94h37.12v39h-37.12z" transform="rotate(-180 199.53 50.442)"></path></defs><clipPath id="SVGID_00000113353746183175805650000003971614820868638119_"><use xlink:href="#SVGID_00000028301537340514939190000013317804000615971263_" style="overflow:visible"></use></clipPath><g style="clip-path:url(#SVGID_00000113353746183175805650000003971614820868638119_)"><path d="M183.15 32.01h69.9v36.83h-69.9z" style="fill:#fff"></path><path d="M253.05 46.75h-30.78V32.02h-8.4v14.73h-30.69v7.36h30.69v14.73h8.4V54.11h30.78z" class="st4"></path><path d="M183.15 36.3v8.02h15.24zM191.56 32.01l-.22.01 19.76 10.46V32.01z" class="st5"></path><path d="m206.61 44.27-23.46-12.25v2.88l17.87 9.37zM229.6 56.58l23.46 12.26v-2.89l-17.87-9.37z" class="st4"></path><path d="M183.15 64.61v-8.02h15.24zM191.56 68.9l-.22-.01 19.76-10.45V68.9z" class="st5"></path><path d="m206.49 56.58-23.33 12.25 5.46.01 22.51-11.76v-.5z" class="st4"></path><path d="M253.06 36.3v8.02h-15.24zM244.65 32.01l.22.01-19.76 10.45V32.01z" class="st5"></path><path d="M253.04 32.03h-5.25l-22.66 11.84v.41h4.79z" class="st4"></path><path d="M253.06 64.61v-8.02h-15.24zM244.65 68.9l.22-.01-19.76-10.45V68.9z" class="st5"></path></g><defs><path id="SVGID_00000109013351184570957410000006899544579112197786_" d="M218.14 31.18h37v38.86h-37z" transform="rotate(-180 236.64 50.61)"></path></defs><clipPath id="SVGID_00000063592207499473731330000003739355281753396897_"><use xlink:href="#SVGID_00000109013351184570957410000006899544579112197786_" style="overflow:visible"></use></clipPath><g style="clip-path:url(#SVGID_00000063592207499473731330000003739355281753396897_)"><path d="M183.21 71.83a2.96 2.96 0 0 1-2.96-2.96V32.02a2.96 2.96 0 0 1 2.96-2.96h69.84a2.96 2.96 0 0 1 2.96 2.96v36.85a2.96 2.96 0 0 1-2.96 2.96h-69.84z" class="st5"></path><path d="M183.21 32.02h69.84v36.85h-69.84z" class="st5"></path><path d="m218.12 60.93.48 1.43h1.48l-1.05.79.29 1.54-1.2-.87-1.21.85.3-1.52-1.04-.79h1.47zM218.12 36l.48 1.44h1.48l-1.05.79.29 1.54-1.2-.87-1.21.85.3-1.52-1.04-.8h1.47zM224.12 37.61l.49 1.43h1.48l-1.05.79.28 1.54-1.2-.87-1.2.85.29-1.52-1.04-.8h1.48zM211.83 37.61l.48 1.43h1.48l-1.05.79.29 1.54-1.2-.87-1.21.85.29-1.52-1.03-.8h1.47zM224.12 59.24l.49 1.44h1.48l-1.05.79.28 1.54-1.2-.87-1.2.85.29-1.52-1.04-.8h1.48zM211.83 59.24l.48 1.44h1.48l-1.05.79.29 1.54-1.2-.87-1.21.85.29-1.52-1.03-.8h1.47zM207.23 42.31l.48 1.44 1.48-.01-1.05.8.29 1.54-1.2-.88-1.21.85.3-1.51-1.04-.8h1.47zM228.87 42.31l.49 1.44 1.47-.01-1.04.8.28 1.54-1.2-.88-1.2.85.29-1.51-1.04-.8h1.48zM207.23 54.75l.48 1.44 1.48-.01-1.05.8.29 1.54-1.2-.88-1.21.85.3-1.51-1.04-.8h1.47zM228.87 54.75l.49 1.44 1.47-.01-1.04.8.28 1.54-1.2-.88-1.2.85.29-1.51-1.04-.8h1.48zM205.8 48.48l.48 1.44h1.48l-1.05.79.29 1.54-1.2-.87-1.21.85.3-1.52-1.04-.8h1.47zM230.46 48.48l.48 1.44h1.48l-1.05.79.29 1.54-1.2-.87-1.21.85.29-1.52-1.03-.8h1.47z" class="st7"></path></g></g></g><g class="logo-beatles"><path d="M35.06 33.77c.03-1.79-.46-4.06-1.61-5.07 2.59 0 19.74.01 19.71.01l-1.03 7.63c-1.03-1.11-2.25-2.57-3.79-2.57-1.58.01-4.86 0-4.88 0v12.46c.02.02 2.52.02 3.85 0 1.34.02 2.68-.28 3.98-1.61v8.48c-1.08-.9-2.42-1.73-3.72-1.73l-4.11-.01v15.86c1.02.32 7.43-.04 9.76-3.47l-1.35 8.54H33.32c1.58-1.33 1.76-3.43 1.73-5.01V33.77zM122.71 33.77c-.03-1.79-.52-4.06-1.61-5.07 2.53 0 19.68.01 19.71.01l-1.09 7.63c-1.02-1.11-2.24-2.57-3.79-2.57-1.57.01-4.86 0-4.88 0v12.46c.02.02 2.53.02 3.85 0 1.35.02 2.68-.28 4.05-1.61v8.48c-1.14-.9-2.48-1.73-3.79-1.73l-4.11-.01v15.86c1.03.32 7.43-.04 9.76-3.47l-1.35 8.54H120.9c1.59-1.33 1.77-3.43 1.8-5.01V33.77zM91.05 1.99c.01-.69-.22-1.57-.77-1.99 1.24.03 9.42.03 9.44 0l-.52 3.02C98.7 2.55 98.12 2 97.41 2c-.77-.01-2.34 0-2.31 0v4.81c-.03.02 1.17.02 1.8 0 .64.02 1.28-.05 1.93-.58v3.72c-.54-.37-1.18-.79-1.8-.77H95.1v5.91c.45.13 3.51-.01 4.62-1.35l-.64 3.34h-8.86c.77-.51.85-1.38.84-1.99V1.99z"></path><path d="M102.93 33.77c.03-1.79-.46-4.06-1.61-5.07h11.62c-1.11 1.01-1.54 3.29-1.54 5.07V67.1c1 .35 7.4-.02 9.76-3.47l-1.61 8.67h-18.36c1.1-.67 1.76-2.89 1.73-5.2V33.77zM99.85 28.7l1.41 8.73c-.8-1.53-3.5-3.67-4.94-3.67l-2.44.01c-.59 0-.82 1.04-.82 2.05-.01 1.76.36 40.59.5 43.02.09 2.47 1.4 5.47 2.38 6.49h-15.1c.98-1.01 2.28-4.02 2.38-6.49.14-2.43.5-41.26.5-43.02.01-1.02-.24-2.06-.82-2.06l-2.44.01c-1.44 0-4.13 2.02-4.94 3.66l1.41-8.73h22.92zM68.9 2.83c0-.39-.11-.8-.39-.77h-1.35c-.68-.03-1.62.77-1.99 1.41L65.49 0H76.4l.32 3.47c-.37-.6-1.31-1.44-1.99-1.41h-1.41c-.29-.03-.41.38-.38.77v12.26c-.02.86.23 1.61.71 1.99h-5.46c.35-.3.7-1.03.7-1.99l.01-12.26zM83.54 17.08h5.71c-.52-.25-.83-1.09-.83-1.99V1.99c0-.69.22-1.57.77-1.99h-5.52c.51.42.73 1.3.71 1.99v4.82h-2.31V1.99c-.04-.69.18-1.57.7-1.99h-5.52c.54.42.76 1.3.76 1.99l.01 13.1c0 .9-.33 1.74-.84 1.99h5.65c-.48-.25-.8-1.09-.77-1.99V9.18h2.31v5.91c.02.9-.3 1.74-.83 1.99zM18.88 1.54c7.53-.03 12.83 3.69 12.83 16.57.01 7.5-2.28 13.46-6.93 15.92 4.43 2.37 8.7 7.97 8.67 17.4.03 16.2-6.71 20.87-15.28 20.87H0c2.12-2.34 2.95-4.34 2.95-7.26V8.48c0-2.88-.83-4.68-2.95-7l18.88.06zm-6.3 27.55c0 1.59 1.4 2.03 3.72 2.05 5.27-.02 5.89-5.7 5.91-13.16-.02-9.64-2.49-11.76-6.04-11.75-2.1-.01-3.59 1.15-3.59 2.44 0 1.47.01 18.89 0 20.42zm4.88 37.56c5.31 0 5.97-5.38 5.97-15.28.01-8.86-2.44-13.46-6.54-13.48-1.76.02-4.3.36-4.3 1.67v23.63c-.01 1.88 1.95 3.47 4.87 3.46z"></path><path d="M61.19 28.7c1.57 2.03 1.79 3.31 1.35 5.07l-7.45 33.52c-.33 1.46-1.1 3.79-2.44 5.01H62.8c-1.54-1.17-1.93-3.01-1.54-5.01l1.16-5.01h8.15l1.16 4.82c.31 1.24.01 4.32-1.35 5.2h11.56c-1.03-.88-2.37-3.01-2.95-5.07L71.8 33.84c-.44-1.77-.21-3.1 1.35-5.14H61.19zm8.41 28.77h-6.1l3.15-13.68 2.95 13.68zM165.28 29.58l-3.47 7.45c-1.13-2.94-3.7-4.2-7.42-3.99-2.46.14-5.47 2.28-5.44 5.83.09 3.14 1.7 4.62 9.52 8.69 7.18 3.76 8.8 8.01 8.8 12.38 0 7.61-5.12 13.21-14.26 13.24-7.02-.03-11.11-3.86-11.11-8.54.01-3.68 2.09-6.49 5.59-7.32-1.27 1.46-1.45 3.27-1.48 4.11.02 2.33 1.33 6.29 7 6.29 3.25 0 5.84-2.15 5.84-6.16-.02-5.32-4.06-6.97-7.77-8.86-2.43-1.22-9.24-4.85-9.24-13.23-.01-6.37 5.86-11.33 12.06-11.37 5.76-.03 4.3 2.57 11.38 1.48z"></path></g><g class="logo-store"><path d="M109.14 82.53c-1.23-1.1-2.28-1.18-2.75-1.18-.52 0-1.15.07-1.6.57-.25.25-.42.61-.42 1.03 0 .39.12.69.37.91.39.37.96.52 2.06.93l1.23.47c.71.27 1.6.64 2.23 1.25.96.91 1.2 2.09 1.2 3.04 0 1.69-.59 3.17-1.45 4.05-1.45 1.52-3.56 1.67-4.64 1.67-1.18 0-2.21-.17-3.24-.69-.83-.42-1.79-1.18-2.41-1.79l1.96-2.7c.42.42 1.08.98 1.52 1.25.64.39 1.3.59 2.06.59.49 0 1.18-.1 1.72-.56.32-.27.59-.71.59-1.33 0-.54-.22-.88-.56-1.18-.44-.37-1.45-.74-1.92-.91l-1.35-.47c-.76-.27-1.65-.61-2.28-1.3-.86-.91-.98-2.06-.98-2.85 0-1.45.44-2.68 1.42-3.68 1.15-1.18 2.53-1.5 4.05-1.5 1.13 0 2.95.2 4.86 1.62l-1.67 2.76zM119.33 81.72V94.9h-3.78V81.72h-3.56v-3.19h10.9v3.19h-3.56zM138.29 80.54c1.55 1.5 2.55 3.66 2.55 6.19 0 2.19-.79 4.42-2.55 6.14-1.52 1.47-3.58 2.41-6.33 2.41-3.07 0-5.16-1.23-6.38-2.41-1.57-1.47-2.55-3.68-2.55-6.09 0-2.36 1.06-4.74 2.53-6.21 1.11-1.1 3.14-2.41 6.41-2.41 2.54 0 4.68.79 6.32 2.38zm-9.94 2.5c-.71.69-1.45 1.89-1.45 3.71 0 1.5.49 2.7 1.5 3.68 1.06 1.01 2.23 1.35 3.51 1.35 1.67 0 2.85-.61 3.63-1.4.64-.61 1.42-1.77 1.42-3.66 0-1.69-.69-2.95-1.42-3.68-.81-.79-2.11-1.4-3.61-1.4-1.42.01-2.7.52-3.58 1.4zM148.81 78.53c2.09 0 3.39.69 4.17 1.42.69.66 1.42 1.84 1.42 3.66 0 1.03-.22 2.31-1.28 3.34a5.15 5.15 0 0 1-2.28 1.25l5.03 6.7h-4.62l-4.42-6.46v6.46h-3.78V78.53h5.76zm-1.97 7.44h.86c.69 0 1.62-.07 2.26-.71.27-.27.61-.79.61-1.6 0-.93-.44-1.42-.76-1.67-.61-.47-1.6-.52-2.09-.52h-.88v4.5zM166.61 81.72h-5.47v3.17h5.21v3.19h-5.21v3.63h5.47v3.19h-9.26V78.53h9.26v3.19z" class="st8"></path></g></svg>