<svg width="256" height="256" viewBox="0 0 256 256" fill="none" xmlns="http://www.w3.org/2000/svg">
<rect x="5" width="256" height="256" fill="#252944"/>
<path d="M299 53.0853C299 59.5133 298.143 66.565 296.431 74.2167C294.723 81.8781 293.06 85.7109 291.468 85.7109C290.227 85.7109 289.611 85.0968 289.611 83.8588C289.611 83.4873 289.73 82.9304 289.985 82.1826C293.266 73.5359 294.91 64.2081 294.91 54.1994C294.91 38.6249 290.256 26.1164 280.964 16.6553C271.678 7.20851 259.411 2.47561 244.172 2.47561C223.229 2.47561 202.046 9.21787 180.621 22.6928C198.961 37.2726 208.125 53.1043 208.125 70.1599C208.125 84.63 202.333 96.9624 190.742 107.166C179.157 117.37 163.896 123.636 144.945 125.988C157.831 133.421 164.277 144.187 164.277 158.3C164.277 167.713 160.997 182.012 154.432 201.201C150.094 213.828 147.934 223.741 147.934 230.922C147.934 238.345 150.599 244.63 155.934 249.768C161.269 254.91 167.786 257.477 175.481 257.477C183.424 257.477 190.938 254.843 198.013 249.591C199.624 248.596 200.74 248.101 201.365 248.101C202.353 248.101 202.852 248.596 202.852 249.591C202.852 251.677 199.376 254.101 192.43 256.862C185.484 259.624 179.467 261 174.375 261C162.466 261 152.482 256.267 144.42 246.796C136.363 237.321 132.325 225.594 132.325 211.604C132.325 201.448 136.792 183.555 145.712 157.933C147.948 151.367 149.05 145.796 149.05 141.211C149.05 135.397 146.637 130.44 141.803 126.36C133.879 127.103 129.355 127.474 128.234 127.474C115.972 127.474 109.846 125.922 109.846 122.822C109.846 120.851 112.935 119.856 119.138 119.856C126.437 119.856 133.741 121.289 141.059 124.122C155.801 121.779 167.887 114.942 177.307 103.633C186.723 92.3152 191.424 78.9972 191.424 63.6605C191.424 51.5522 186.723 39.9247 177.307 28.7923L175.438 26.383C148.32 46.6764 129.941 72.2123 104.191 121.908C83.2998 162.195 49.3927 212 7.27576 235.193C-17.9497 249.087 -41.7115 254.129 -62.0259 254.129C-78.6267 254.129 -92.4433 250.325 -103.461 242.716C-114.484 235.107 -120 225.613 -120 214.233C-120 207.919 -118.083 202.477 -114.246 197.891C-110.403 193.316 -105.883 191.03 -100.677 191.03C-93.1252 191.03 -89.3444 195.244 -89.3444 203.653C-89.3444 207.857 -90.6126 211.447 -93.1538 214.414C-95.6901 217.39 -98.8176 218.87 -102.536 218.87C-108.987 218.87 -112.076 215.533 -111.824 208.852C-111.704 206.129 -111.948 204.772 -112.567 204.772C-114.551 204.772 -115.542 208.048 -115.542 214.6C-115.542 224.875 -110.493 233.412 -100.4 240.211C-90.3217 247.02 -77.6017 250.425 -62.2405 250.425C-35.1274 250.425 -9.73533 241.264 11.4854 220.356C47.2996 185.059 59.8242 159.543 84.8349 121.432C97.3308 102.614 137.074 47.8288 172.301 24.1689C159.419 15.4078 124.606 -0.490807 87.19 -0.490807C34.9136 -0.490807 -10.5456 18.3742 -49.1964 56.1041C-80.9012 87.0394 -96.7676 116.175 -96.7676 143.515C-96.7676 157.385 -92.3051 168.394 -83.3849 176.56C-74.4647 184.726 -62.3885 188.807 -47.151 188.807C-22.2499 188.807 3.48542 176.865 30.0552 152.991C56.6204 129.117 69.9076 105.914 69.9076 83.3968C69.9076 65.4557 60.6776 56.4804 42.2223 56.4804C23.7573 56.4804 3.97178 66.7794 -17.1487 87.3584C-38.2741 107.942 -48.8341 127.255 -48.8341 145.306C-48.8341 149.753 -47.3467 153.586 -44.3573 156.804C-41.3682 160.023 -37.8924 161.623 -33.9068 161.623C-31.7854 161.623 -30.7314 162.18 -30.7314 163.299C-30.7314 164.285 -31.914 164.78 -34.2642 164.78C-40.2334 164.78 -45.2775 162.094 -49.3775 156.719C-53.4825 151.343 -55.5278 144.758 -55.5278 136.973C-55.5278 117.684 -44.9342 98.8954 -23.7518 80.5973C-2.57429 62.3034 19.166 53.152 41.4687 53.152C62.7752 53.152 73.4259 62.9939 73.4259 82.6636C73.4259 106.671 59.8622 130.912 32.7345 155.419C5.61168 179.917 -21.1534 192.163 -47.542 192.163C-64.7532 192.163 -78.5361 186.992 -88.8819 176.67C-99.2276 166.337 -104.396 152.505 -104.396 135.183C-104.396 100.176 -84.6148 68.2221 -45.0345 39.3247C-5.45378 10.4416 38.3033 -4 86.2415 -4C122.675 -4 153.274 4.09451 178.046 20.2883C200.711 6.20385 222.642 -0.847903 243.831 -0.847903C260.417 -0.847903 273.77 4.09451 283.864 13.9841C293.946 23.8546 299 36.8915 299 53.0853Z" fill="white"/>
</svg>
