<svg width="256" height="256" viewBox="0 0 256 256" fill="none" xmlns="http://www.w3.org/2000/svg">
<rect width="256" height="256" fill="#252944"/>
<path d="M238.851 83.0206C238.851 86.4261 238.398 90.1621 237.492 94.2161C236.588 98.2751 235.708 100.306 234.866 100.306C234.209 100.306 233.883 99.9803 233.883 99.3244C233.883 99.1276 233.947 98.8326 234.081 98.4364C235.817 93.8554 236.687 88.9134 236.687 83.6108C236.687 75.3594 234.224 68.7323 229.308 63.7198C224.395 58.7149 217.904 56.2074 209.841 56.2074C198.759 56.2074 187.551 59.7795 176.214 66.9186C185.919 74.643 190.767 83.0306 190.767 92.0667C190.767 99.733 187.703 106.267 181.57 111.673C175.44 117.079 167.365 120.399 157.337 121.645C164.156 125.583 167.566 131.286 167.566 138.763C167.566 143.751 165.831 151.326 162.357 161.493C160.062 168.182 158.919 173.435 158.919 177.239C158.919 181.172 160.329 184.501 163.152 187.223C165.975 189.948 169.423 191.308 173.495 191.308C177.697 191.308 181.673 189.913 185.417 187.13C186.269 186.603 186.86 186.34 187.19 186.34C187.713 186.34 187.977 186.603 187.977 187.13C187.977 188.235 186.138 189.519 182.463 190.982C178.787 192.445 175.604 193.174 172.909 193.174C166.608 193.174 161.325 190.667 157.06 185.649C152.796 180.629 150.66 174.416 150.66 167.004C150.66 161.624 153.023 152.144 157.743 138.569C158.926 135.09 159.509 132.139 159.509 129.71C159.509 126.629 158.233 124.003 155.675 121.842C151.482 122.235 149.088 122.432 148.495 122.432C142.007 122.432 138.765 121.609 138.765 119.967C138.765 118.923 140.4 118.396 143.682 118.396C147.544 118.396 151.409 119.155 155.281 120.656C163.081 119.415 169.476 115.792 174.461 109.801C179.443 103.805 181.93 96.7487 181.93 88.6234C181.93 82.2083 179.443 76.048 174.461 70.1501L173.472 68.8736C159.123 79.6251 149.398 93.1541 135.774 119.483C124.719 140.827 106.778 167.214 84.4933 179.502C71.1459 186.863 58.573 189.534 47.8242 189.534C39.0403 189.534 31.7296 187.519 25.8998 183.487C20.0674 179.456 17.1487 174.426 17.1487 168.397C17.1487 165.052 18.1628 162.169 20.1936 159.739C22.2268 157.315 24.6182 156.104 27.373 156.104C31.3688 156.104 33.3693 158.337 33.3693 162.792C33.3693 165.019 32.6983 166.921 31.3537 168.493C30.0116 170.07 28.3568 170.854 26.3892 170.854C22.976 170.854 21.3414 169.086 21.4751 165.546C21.5381 164.103 21.4095 163.385 21.0815 163.385C20.0321 163.385 19.5074 165.12 19.5074 168.591C19.5074 174.035 22.1789 178.558 27.5193 182.16C32.8522 185.768 39.5826 187.572 47.7106 187.572C62.0568 187.572 75.4923 182.718 86.7207 171.641C105.671 152.941 112.298 139.422 125.532 119.231C132.143 109.261 153.172 80.2357 171.812 67.7006C164.996 63.0589 146.576 54.6358 126.778 54.6358C99.1171 54.6358 75.0636 64.6305 54.6125 84.6199C37.8368 101.01 29.4415 116.446 29.4415 130.931C29.4415 138.279 31.8028 144.111 36.5226 148.438C41.2425 152.764 47.6323 154.926 55.6948 154.926C68.8706 154.926 82.4877 148.599 96.5464 135.951C110.603 123.302 117.633 111.009 117.633 99.0797C117.633 89.5745 112.749 84.8193 102.984 84.8193C93.214 84.8193 82.7451 90.2757 71.5697 101.179C60.3918 112.084 54.8042 122.316 54.8042 131.879C54.8042 134.235 55.5913 136.266 57.173 137.971C58.7546 139.677 60.5937 140.524 62.7026 140.524C63.8251 140.524 64.3828 140.819 64.3828 141.412C64.3828 141.934 63.7571 142.197 62.5135 142.197C59.3551 142.197 56.6861 140.774 54.5167 137.926C52.3447 135.078 51.2624 131.589 51.2624 127.465C51.2624 117.245 56.8678 107.291 68.0759 97.5965C79.2814 87.9043 90.7847 83.0559 102.586 83.0559C113.859 83.0559 119.495 88.2702 119.495 98.6912C119.495 111.41 112.318 124.253 97.9641 137.237C83.6128 150.216 69.4508 156.704 55.4879 156.704C46.3811 156.704 39.0883 153.965 33.6141 148.496C28.1399 143.022 25.4053 135.693 25.4053 126.516C25.4053 107.969 35.8719 91.0401 56.8147 75.7302C77.7578 60.4278 100.911 52.7766 126.276 52.7766C145.554 52.7766 161.744 57.0651 174.852 65.6446C186.844 58.1826 198.449 54.4466 209.66 54.4466C218.436 54.4466 225.501 57.0651 230.843 62.3046C236.177 67.5341 238.851 74.441 238.851 83.0206Z" fill="white"/>
</svg>
